# xmcd
#
# Track frame offsets:
#	150
#	38631
#	81763
#	105909
#	127027
#	149658
#	177152
#
# Disc length: 2685 seconds
#
# Revision: 1
# Processed by: cddbd v1.5.2PL0 Copyright (c) Steve Scherf et al.
# Submitted via: audiograbber 1.83.01
#
DISCID=570a7b07
DTITLE=ido baum - OM ZION BOME
DYEAR=1900
DGENRE=
TTITLE0=Om zion
TTITLE1=Spiral thinking
TTITLE2=Emotions
TTITLE3=The butterfly movementÒðåê  4
TTITLE4=Time lullaby
TTITLE5=Free flow dance
TTITLE6=Healing angels
EXTD=
EXTT0=
EXTT1=
EXTT2=
EXTT3=
EXTT4=
EXTT5=
EXTT6=
PLAYORDER=
